<?xml version="1.0" encoding="UTF-8" standalone="no"?>
<!-- Created with Inkscape (http://www.inkscape.org/) -->

<svg
   xmlns:dc="http://purl.org/dc/elements/1.1/"
   xmlns:cc="http://creativecommons.org/ns#"
   xmlns:rdf="http://www.w3.org/1999/02/22-rdf-syntax-ns#"
   xmlns:svg="http://www.w3.org/2000/svg"
   xmlns="http://www.w3.org/2000/svg"
   xmlns:sodipodi="http://sodipodi.sourceforge.net/DTD/sodipodi-0.dtd"
   xmlns:inkscape="http://www.inkscape.org/namespaces/inkscape"
   id="svg3077"
   version="1.1"
   inkscape:version="0.47 r22583"
   width="400"
   height="356"
   sodipodi:docname="donkey.png">
  <metadata
     id="metadata3083">
    <rdf:RDF>
      <cc:Work
         rdf:about="">
        <dc:format>image/svg+xml</dc:format>
        <dc:type
           rdf:resource="http://purl.org/dc/dcmitype/StillImage" />
        <dc:title></dc:title>
      </cc:Work>
    </rdf:RDF>
  </metadata>
  <defs
     id="defs3081">
    <inkscape:perspective
       sodipodi:type="inkscape:persp3d"
       inkscape:vp_x="0 : 0.5 : 1"
       inkscape:vp_y="0 : 1000 : 0"
       inkscape:vp_z="1 : 0.5 : 1"
       inkscape:persp3d-origin="0.5 : 0.33333333 : 1"
       id="perspective3085" />
  </defs>
  <sodipodi:namedview
     pagecolor="#ffffff"
     bordercolor="#666666"
     borderopacity="1"
     objecttolerance="10"
     gridtolerance="10"
     guidetolerance="10"
     inkscape:pageopacity="0"
     inkscape:pageshadow="2"
     inkscape:window-width="1436"
     inkscape:window-height="839"
     id="namedview3079"
     showgrid="false"
     inkscape:zoom="1.3370787"
     inkscape:cx="273.06982"
     inkscape:cy="209.9455"
     inkscape:window-x="0"
     inkscape:window-y="36"
     inkscape:window-maximized="1"
     inkscape:current-layer="svg3077" />
  <path
     style="fill:#c0000f;fill-opacity:1"
     d="m 304.5,349.79056 c -3.39396,-1.18962 -6.24102,-3.43813 -7.62297,-6.02034 -1.41731,-2.64826 1.07876,-6.462 8.56939,-13.09316 7.96147,-7.04797 9.10971,-9.16513 9.85833,-18.17706 0.31982,-3.85 1.50709,-9.65795 2.63837,-12.90655 1.76933,-5.08082 2.05688,-8.32797 2.05688,-23.22717 0,-19.41093 -0.15862,-20.08664 -9.29982,-39.61628 -3.54055,-7.56419 -5.01223,-9.75 -6.56453,-9.75 -3.11873,0 -3.36284,3.092 -0.75479,9.56009 3.10578,7.70245 4.18594,15.65732 2.63461,19.40256 -0.65225,1.57466 -5.67434,6.80138 -11.1602,11.61494 -5.48587,4.81355 -10.5974,9.95685 -11.35897,11.42956 -0.79648,1.54023 -1.46538,6.24903 -1.5747,11.08524 -0.10452,4.62419 -0.60423,9.53261 -1.11046,10.90761 -0.50624,1.375 -3.35062,4.75 -6.32085,7.5 -3.67051,3.39835 -7.05041,8.04313 -10.55131,14.5 -6.1589,11.35916 -8.15689,13.68814 -12.86472,14.99594 C 238.91674,341.37321 225,336.97737 225,329.75994 c 0,-4.06024 0.53968,-4.90857 17.32172,-27.22837 13.80213,-18.35657 15.12138,-20.48038 16.34355,-26.31083 0.73121,-3.48833 1.8363,-7.28942 2.45575,-8.44686 0.67791,-1.26669 0.92031,-4.67016 0.60892,-8.54952 -0.42268,-5.26568 -1.64815,-8.75798 -6.69695,-19.08471 -3.39878,-6.95181 -7.35581,-13.87715 -8.79339,-15.38965 -3.18028,-3.34602 -4.57864,-3.39469 -22.34792,-0.7778 -7.36542,1.08472 -19.52631,2.37383 -27.02418,2.86469 -14.52219,0.95073 -17.48999,1.9952 -19.80338,6.9695 -0.63073,1.35621 -1.54651,2.01351 -2.22288,1.59549 -0.69651,-0.43047 -0.87848,-0.27115 -0.46129,0.40387 0.37893,0.61312 -0.61299,3.72015 -2.20427,6.90451 C 169.44751,248.16968 165,268.60501 165,275.68092 c 0,1.47131 1.58147,7.74113 3.51438,13.93294 3.70564,11.87051 3.65943,11.80609 13.23562,18.45004 2.3375,1.62176 4.25,3.62939 4.25,4.4614 0,0.83202 -3.48296,5.4417 -7.73991,10.24373 -15.58914,17.58526 -17.22104,18.63866 -21.14547,13.64955 -3.09759,-3.93795 -5.54564,-2.87022 -5.93425,2.58824 -0.55533,7.80049 -1.2181,8.07003 -19.51982,7.93873 -16.56859,-0.11888 -19.95716,-0.67015 -21.01173,-3.41833 -0.76817,-2.00182 4.44439,-13.77078 8.20585,-18.52722 8.15292,-10.30955 9.4238,-12.98514 10.19695,-21.46773 0.40905,-4.48794 1.89586,-11.80703 3.30402,-16.26464 2.52085,-7.97991 2.54622,-8.3717 1.64715,-25.43619 C 133.50057,252.29915 132.84951,243.6 132.55599,242.5 130.89012,236.2569 120,190.25508 120,189.46127 120,189.20757 171.72961,189 234.95469,189 l 114.95468,0 0.70224,3.75 c 0.38623,2.0625 1.34162,5.28182 2.12309,7.15404 2.27975,5.46172 13.00018,20.82122 15.90717,22.79071 1.46552,0.99289 4.23298,3.2851 6.14991,5.0938 l 3.48532,3.28855 -0.51615,8.21145 c -0.60321,9.59626 -2.86044,16.03152 -5.44842,15.53312 -1.09971,-0.21178 -2.02267,-1.76397 -2.54567,-4.28118 -0.45126,-2.17192 -2.21381,-6.12026 -3.91677,-8.77411 -2.58647,-4.03067 -2.99452,-5.46169 -2.47815,-8.69088 0.59086,-3.69503 0.28379,-4.25668 -6.95464,-12.72061 -4.16504,-4.87019 -7.93558,-8.98748 -8.37898,-9.14953 -0.4434,-0.16206 -1.59179,0.49097 -2.55198,1.45116 -2.95867,2.95867 -1.48584,13.9635 5.54599,41.43909 3.67981,14.37816 3.73196,18.59647 0.31907,25.8079 -2.4467,5.16985 -2.70259,6.98066 -3.35667,23.75371 l -0.70807,18.15722 -5.74404,10.34278 c -6.90997,12.44217 -9.42545,15.27412 -15.36482,17.29786 -5.12378,1.74585 -17.12424,1.93157 -21.6778,0.33548 z"
     id="path3089"
     sodipodi:nodetypes="csssssssssssssssssssssssssssssssssssssssssssscccsscccssssssssscccsc" />
  <path
     id="path3091"
     d="m 113.87801,172.25 c -2.30179,-3.1625 -6.39618,-8.77078 -9.09865,-12.46285 C 99.63244,152.75554 92.881429,147 89.780549,147 c -1.004,0 -5.46743,3.40594 -9.91873,7.56875 -8.76354,8.19557 -9.62238,8.67053 -19.90866,11.01009 -6.75145,1.53559 -7.03662,1.51673 -15.33308,-1.01384 -8.89312,-2.71257 -12.90753,-5.87779 -14.25282,-11.23785 -1.39829,-5.57124 2.25438,-23.72291 7.09208,-35.24353 1.81053,-4.31162 2.51324,-8.42586 3.08466,-18.05999 0.72389,-12.204778 0.83583,-12.65807 5.1422,-20.823046 5.00396,-9.487604 4.96555,-10.438884 -0.67008,-16.596164 -7.05986,-7.71335 -8.51612,-11.74971 -8.51612,-23.604424 0,-9.70955 0.23773,-11.00179 3.15794,-17.16555 5.87383,-12.39804 8.32119,-11.16975 16.2698,8.16555 5.8893,14.32596 9.92545,20.139914 12.771,18.396244 1.43929,-0.88195 1.91228,-2.891494 2.35375,-10.000004 0.50939,-8.20236 0.95088,-9.68036 5.66032,-18.94937 5.32851,-10.48746 7.39963,-13.1134498 9.37814,-11.8906598 1.83715,1.1354198 9.80437,18.8736398 11.56635,25.7513298 1.109671,4.33147 1.394941,8.22057 0.952311,12.983054 -0.975641,10.49755 0.0538,11.51277 16.39039,16.16421 15.9703,4.54715 23.24897,9.209952 47.37131,30.346643 6.52922,5.721087 13.30001,10.998937 15.0462,11.728537 1.74619,0.7296 6.96063,2.09364 11.58765,3.0312 16.46924,3.33709 27.13204,1.33522 71.99484,-13.516582 26.29089,-8.70358 36.7997,-10.795724 45.85027,-9.128091 11.34937,2.091205 25.57826,8.659958 32.36067,14.939273 7.64464,7.07759 10.64763,11.63946 14.74523,22.39961 l 3.33416,8.7554 -0.71226,13.7446 c -0.61859,11.93699 -2.67458,28.11074 -4.06712,31.99461 -0.35507,0.99032 -24.75385,1.25 -117.44802,1.25 l -116.99984,0 -4.18508,-5.75 z m 26.03518,-10.15959 c 3.28468,-2.46625 5.84054,-3.7367 6.5,-3.23095 4.41949,3.3893 12.58937,9.14054 12.98454,9.14054 0.26572,0 -0.61507,-3.22882 -1.9573,-7.17515 -1.34224,-3.94634 -2.43736,-7.88384 -2.4336,-8.75 0.004,-0.86617 1.66938,-2.69985 3.70139,-4.07485 2.032,-1.375 5.04389,-3.625 6.69308,-5 l 2.99854,-2.5 -8.8693,-0.5 -8.86929,-0.5 -2.66521,-8 -2.66521,-8 -2.74754,8.25 -2.74753,8.25 -8.41788,0 c -4.62983,0 -8.40818,0.3375 -8.39631,0.75 0.0119,0.4125 2.51245,2.53473 5.55688,4.71608 3.04442,2.18134 6.00168,4.528 6.57167,5.21481 0.91816,1.10631 -0.45826,6.74908 -3.94807,16.18544 -0.66866,1.80802 1.59592,0.56645 8.71114,-4.77592 z m 57.29455,0.20713 5.70773,-4.34939 6.76631,4.96855 c 3.72147,2.7327 6.93674,4.79811 7.14505,4.5898 0.30209,-0.30209 -2.38688,-9.28146 -4.52817,-15.12106 -0.22478,-0.61301 2.86314,-3.53801 6.86205,-6.5 l 7.27073,-5.38544 -9.08091,-0.28574 -9.08092,-0.28574 -2.37702,-7.87359 c -1.30735,-4.33047 -2.68312,-7.68439 -3.05726,-7.45316 -0.37414,0.23124 -1.67593,3.77435 -2.89286,7.87359 l -2.2126,7.45316 -9.08066,0.28574 -9.08065,0.28574 7.21572,5.34466 c 3.96864,2.93956 7.21572,5.44824 7.21572,5.57485 0,0.1266 -1.125,3.53782 -2.5,7.58049 -3.66163,10.76564 -3.90682,10.62399 5.70774,3.29754 z m 59.21958,0.0259 5.92732,-4.29037 3.32268,2.48344 c 1.82748,1.36589 4.89768,3.66185 6.82268,5.10213 4.26263,3.18929 4.39021,2.34893 1.10825,-7.30044 l -2.39176,-7.03205 7.14176,-5.3931 7.14175,-5.3931 -9.07366,-0.28519 -9.07366,-0.28519 -2.31825,-8.0229 c -1.27504,-4.41259 -2.61597,-7.65925 -2.97984,-7.21481 -0.36387,0.44445 -1.67596,4.07059 -2.91576,8.05809 l -2.25417,7.25 -8.52566,0 c -4.70387,0 -8.37624,0.40824 -8.19233,0.91071 0.18333,0.50089 3.14583,2.97496 6.58333,5.49793 3.4375,2.52298 6.25,4.95934 6.25,5.41414 0,0.4548 -1.125,4.13455 -2.5,8.17722 -1.375,4.04267 -2.5,7.52304 -2.5,7.73417 0,0.54935 1.71047,-0.54884 8.42732,-5.41068 z m 59.70524,-1.49708 3.63256,-2.80844 6.81021,4.96491 c 3.74562,2.7307 6.99473,4.7804 7.22023,4.55489 0.32673,-0.32673 -2.27439,-9.09122 -4.4969,-15.15233 -0.22478,-0.61301 2.86314,-3.53801 6.86205,-6.5 l 7.27073,-5.38544 -9.14575,-0.2866 -9.14576,-0.2866 -2.22691,-7.50138 c -1.22481,-4.12576 -2.54669,-7.69902 -2.93752,-7.94056 -0.39084,-0.24155 -1.72815,3.13442 -2.9718,7.50216 l -2.2612,7.94134 -9.12125,0.28582 L 296.5,140.5 l 5.97372,4.5 c 3.28555,2.475 6.5592,4.95212 7.27479,5.50471 1.04784,0.80917 0.80967,2.41121 -1.22372,8.23122 -1.38863,3.97458 -2.52479,7.7156 -2.52479,8.31338 0,1.08669 3.29716,-0.93825 10.13256,-6.2229 l 0,-5e-5 z"
     style="fill:#003298;fill-opacity:1"
     sodipodi:nodetypes="csssssssssssssssssssssssssscccsccccssssscccccccccssssccccsscccccscccccssccccscccccccscccsssssccccsscccccscccccssscc" />
</svg>
