<?xml version="1.0" encoding="UTF-8" standalone="no"?>
<!-- Created with Inkscape (http://www.inkscape.org/) -->

<svg
   xmlns:dc="http://purl.org/dc/elements/1.1/"
   xmlns:cc="http://creativecommons.org/ns#"
   xmlns:rdf="http://www.w3.org/1999/02/22-rdf-syntax-ns#"
   xmlns:svg="http://www.w3.org/2000/svg"
   xmlns="http://www.w3.org/2000/svg"
   xmlns:xlink="http://www.w3.org/1999/xlink"
   xmlns:sodipodi="http://sodipodi.sourceforge.net/DTD/sodipodi-0.dtd"
   xmlns:inkscape="http://www.inkscape.org/namespaces/inkscape"
   width="744.09448819"
   height="1052.3622047"
   id="svg2"
   version="1.1"
   inkscape:version="0.47 r22583"
   sodipodi:docname="fish.svg">
  <defs
     id="defs4">
    <linearGradient
       id="linearGradient3592">
      <stop
         style="stop-color:#ff0000;stop-opacity:1;"
         offset="0"
         id="stop3594" />
      <stop
         style="stop-color:#0000ff;stop-opacity:1;"
         offset="1"
         id="stop3596" />
    </linearGradient>
    <inkscape:perspective
       sodipodi:type="inkscape:persp3d"
       inkscape:vp_x="0 : 526.18109 : 1"
       inkscape:vp_y="0 : 1000 : 0"
       inkscape:vp_z="744.09448 : 526.18109 : 1"
       inkscape:persp3d-origin="372.04724 : 350.78739 : 1"
       id="perspective10" />
    <linearGradient
       inkscape:collect="always"
       xlink:href="#linearGradient3592"
       id="linearGradient3598"
       x1="110"
       y1="822.36218"
       x2="340"
       y2="822.36218"
       gradientUnits="userSpaceOnUse"
       gradientTransform="matrix(-1,0,0,1,429.78872,0)" />
    <inkscape:perspective
       id="perspective4024"
       inkscape:persp3d-origin="0.5 : 0.33333333 : 1"
       inkscape:vp_z="1 : 0.5 : 1"
       inkscape:vp_y="0 : 1000 : 0"
       inkscape:vp_x="0 : 0.5 : 1"
       sodipodi:type="inkscape:persp3d" />
    <inkscape:perspective
       id="perspective4317"
       inkscape:persp3d-origin="0.5 : 0.33333333 : 1"
       inkscape:vp_z="1 : 0.5 : 1"
       inkscape:vp_y="0 : 1000 : 0"
       inkscape:vp_x="0 : 0.5 : 1"
       sodipodi:type="inkscape:persp3d" />
    <linearGradient
       inkscape:collect="always"
       xlink:href="#linearGradient3592-3"
       id="linearGradient3598-1"
       x1="110"
       y1="822.36218"
       x2="340"
       y2="822.36218"
       gradientUnits="userSpaceOnUse"
       gradientTransform="matrix(-1,0,0,1,429.78872,0)" />
    <linearGradient
       id="linearGradient3592-3">
      <stop
         style="stop-color:#ff0000;stop-opacity:1;"
         offset="0"
         id="stop3594-1" />
      <stop
         style="stop-color:#0000ff;stop-opacity:1;"
         offset="1"
         id="stop3596-1" />
    </linearGradient>
    <linearGradient
       gradientTransform="translate(-110,-772.36218)"
       y2="822.36218"
       x2="340"
       y1="822.36218"
       x1="110"
       gradientUnits="userSpaceOnUse"
       id="linearGradient4326"
       xlink:href="#linearGradient3592-3"
       inkscape:collect="always" />
  </defs>
  <sodipodi:namedview
     id="base"
     pagecolor="#ffffff"
     bordercolor="#666666"
     borderopacity="1.0"
     inkscape:pageopacity="0.0"
     inkscape:pageshadow="2"
     inkscape:zoom="1.979899"
     inkscape:cx="190.95236"
     inkscape:cy="139.36779"
     inkscape:document-units="px"
     inkscape:current-layer="layer1"
     showgrid="true"
     inkscape:snap-global="true"
     inkscape:window-width="1436"
     inkscape:window-height="839"
     inkscape:window-x="0"
     inkscape:window-y="36"
     inkscape:window-maximized="1">
    <inkscape:grid
       type="xygrid"
       id="grid2816" />
  </sodipodi:namedview>
  <metadata
     id="metadata7">
    <rdf:RDF>
      <cc:Work
         rdf:about="">
        <dc:format>image/svg+xml</dc:format>
        <dc:type
           rdf:resource="http://purl.org/dc/dcmitype/StillImage" />
        <dc:title />
      </cc:Work>
    </rdf:RDF>
  </metadata>
  <g
     inkscape:label="Layer 1"
     inkscape:groupmode="layer"
     id="layer1">
    <path
       style="fill:url(#linearGradient3598);fill-opacity:1;stroke:none"
       d="m 229.78872,802.36218 c 10,0 70,0 90,30 -20,40 -100,50 -180,20 -10,10 -30,20 -40,20 10,-10 0,-20 20,-30 -20,-10 0,-30 -30,-50 20,0 40,20 50,30 10,-10 40,-20 60,-20 0,-10 0,-20 -10,-30 30,10 30,20 40,30 z"
       id="path2818"
       sodipodi:nodetypes="cccccccccc"
       inkscape:export-filename="/home/cesium/Desktop/fish.png"
       inkscape:export-xdpi="180"
       inkscape:export-ydpi="180" />
    <path
       style="color:#000000;fill:url(#linearGradient3598-1);fill-opacity:1;fill-rule:nonzero;stroke:none;stroke-width:1.5;marker:none;visibility:visible;display:inline;overflow:visible;enable-background:accumulate"
       d="m 194.25747,914.0625 c 0.6512,-0.001 1.34143,0.0278 2.09375,0.0937 11.14362,2.78019 22.29388,8.42324 33.4375,18.21875 9.18345,0.0137 18.28158,1.13827 27.375,2.3125 7.4048,1.16442 14.66805,3.16267 21.53125,6.0625 6.22771,2.67993 12.33674,5.59146 17.96875,9.3125 9.6191,6.3553 20.03308,12.78883 30.78125,18.1875 3.91165,2.5651 7.83835,5.36816 11.75,8.78125 0.50205,0.71925 0.90927,1.47697 0.78125,2.40625 -0.22875,1.64893 -0.77355,3.28857 -2.0625,4.9375 0.88131,-0.005 1.03464,0.82684 1.09375,1.78125 0.0636,1.41488 -0.1219,1.90794 -1.375,2.75 -1.43166,1.88681 -4.25615,3.63768 -6.84375,4.1875 -5.80619,1.22191 -11.61688,2.56463 -16.5625,4.25 -4.86588,1.65819 -10.1367,2.29791 -15.8125,2.84375 -3.43344,0.5699 -7.81058,0.4502 -12.0625,0.4063 -3.93394,0.1282 -7.83906,0.2466 -11.75,0.375 l 4.90625,-0.063 c -3.75689,4.7772 -6.90427,10.7786 -11.96875,13 -4.05991,1.3352 -9.48405,2.5222 -12.625,-1.0312 -2.55382,-3.5941 -2.70636,-7.1872 -2.1875,-10.7812 -8.17837,-0.2271 -16.77109,0.3447 -24.375,-1.0313 -0.12573,-0.035 -0.19438,-0.062 -0.3125,-0.094 -6.26245,5.5376 -11.80131,11.5341 -22.09375,14.625 -2.18084,0.1973 -4.38165,0.1308 -6.5625,-0.7188 -0.58103,-1.1056 -1.457,-1.9953 -1.34375,-3.6562 -1.21134,-1.019 -0.87849,-2.2839 -1.28125,-3.4376 -0.30673,-1.6448 -0.80342,-2.3293 -0.25,-3.6874 l 0.53125,-0.2188 -3.875,-0.031 c -1.67679,-0.6617 -2.44503,-1.6871 -2.71875,-2.7188 -1.87559,-1.21878 -1.29252,-1.37115 -1.65625,-2.21875 -0.15803,-1.39319 -0.61153,-2.77359 -0.25,-4.21875 l -0.0937,0 -9.09375,-0.0937 c -7.76655,4.40715 -15.54039,8.80765 -25.59375,11.34375 -3.34284,0.072 -6.54952,-0.1119 -8.21875,-2.9687 -1.39121,-1.2678 -1.0558,-2.5302 -1.125,-3.75005 -0.11968,-2.10937 0.80737,-3.27933 2.0625,-4.6875 1.08674,-2.51245 1.27191,-5.30472 3.6875,-7.4375 -0.30295,-0.85107 0.93948,-1.71144 1.59375,-2.5625 -2.68617,0.58756 -5.37633,0.68838 -8.0625,1.84375 -6.9176,2.46352 -12.77483,4.94273 -21.625,7.40625 -8.43587,2.51332 -17.45783,6.97675 -23.28125,0.90625 -1.27218,-1.94149 -1.59075,-3.90226 -1.59375,-5.84375 -0.69148,-1.75532 -0.64162,-3.49468 0.15625,-5.25 0.01318,-1.46947 -0.20245,-3.04704 1.03125,-3.90625 0.56379,-2.6096 1.87715,-4.93903 3.5,-7.125 0.0536,-2.34873 1.06167,-3.41423 1.6875,-5 -0.28767,-1.03724 -0.0455,-2.08777 0.0625,-3.125 0.41975,-2.39362 0.52407,-4.79388 0.0937,-7.1875 0.0844,-2.57978 -1.39693,-5.13896 0.40625,-7.71875 0.33562,-2.10106 -0.22886,-4.21143 1.4375,-6.3125 0.52743,-1.94149 -0.26827,-3.90226 2.15625,-5.84375 0.12563,-1.05237 0.52531,-2.00364 1.5,-2.84375 3.67894,-3.88173 6.68619,-1.59192 9.75,0.0625 L 130.75747,944.5 c 6.11399,4.07696 12.20554,8.38788 18.9375,9.375 14.14786,-0.43574 19.8052,-4.82158 29.75,-7.21875 -4.21972,-0.24998 -4.68216,-2.02026 -3.4375,-4.15625 -0.48407,-1.94149 -1.66989,-3.90226 0.25,-5.84375 -0.28935,-1.9149 -0.18262,-3.80385 1.84375,-5.71875 -0.38491,-2.3925 -0.0452,-4.64833 2.53125,-6.40625 -0.67462,-3.29793 1.32769,-4.15551 3.125,-5.1875 1.16299,-2.11458 3.17268,-3.56184 6.25,-4.1875 0.82218,-0.75878 2.29639,-1.08925 4.25,-1.09375 z"
       id="path8591" />
  </g>
</svg>
