<?xml version="1.0" encoding="UTF-8" standalone="no"?>
<!-- Generator: Adobe Illustrator 14.0.0, SVG Export Plug-In . SVG Version: 6.00 Build 43363)  -->

<svg
   xmlns:dc="http://purl.org/dc/elements/1.1/"
   xmlns:cc="http://creativecommons.org/ns#"
   xmlns:rdf="http://www.w3.org/1999/02/22-rdf-syntax-ns#"
   xmlns:svg="http://www.w3.org/2000/svg"
   xmlns="http://www.w3.org/2000/svg"
   xmlns:sodipodi="http://sodipodi.sourceforge.net/DTD/sodipodi-0.dtd"
   xmlns:inkscape="http://www.inkscape.org/namespaces/inkscape"
   version="1.1"
   id="Layer_1"
   x="0px"
   y="0px"
   width="105.298px"
   height="77.815px"
   viewBox="0 0 105.298 77.815"
   enable-background="new 0 0 105.298 77.815"
   xml:space="preserve"
   inkscape:version="0.47 r22583"
   sodipodi:docname="twitter.svg"><metadata
   id="metadata2933"><rdf:RDF><cc:Work
       rdf:about=""><dc:format>image/svg+xml</dc:format><dc:type
         rdf:resource="http://purl.org/dc/dcmitype/StillImage" /><dc:title></dc:title></cc:Work></rdf:RDF></metadata><defs
   id="defs2931"><inkscape:perspective
   sodipodi:type="inkscape:persp3d"
   inkscape:vp_x="0 : 38.907501 : 1"
   inkscape:vp_y="0 : 1000 : 0"
   inkscape:vp_z="105.298 : 38.907501 : 1"
   inkscape:persp3d-origin="52.648998 : 25.938334 : 1"
   id="perspective2935" />
	
	
	
	
	
	
	
	
	
</defs><sodipodi:namedview
   pagecolor="#ffffff"
   bordercolor="#666666"
   borderopacity="1"
   objecttolerance="10"
   gridtolerance="10"
   guidetolerance="10"
   inkscape:pageopacity="0"
   inkscape:pageshadow="2"
   inkscape:window-width="1436"
   inkscape:window-height="839"
   id="namedview2929"
   showgrid="false"
   inkscape:zoom="6.1170723"
   inkscape:cx="62.808504"
   inkscape:cy="40.266077"
   inkscape:window-x="0"
   inkscape:window-y="36"
   inkscape:window-maximized="1"
   inkscape:current-layer="Layer_1" />
<path
   style="fill:#2e79b8"
   d="M 68.0625 2.625 C 65.233211 3.2168049 62.522129 4.7443849 60.46875 6.84375 C 61.149797 5.9588438 61.64025 4.894 61.6875 3.8125 C 56.3135 6.4454999 48.2675 21.04425 47.8125 27.15625 L 47.9375 26.84375 C 47.118093 29.31268 46.439999 31.885949 45.78125 34.46875 C 45.042534 33.939165 44.315211 33.411931 43.59375 32.9375 C 39.98575 30.5845 33.44675 25.27425 28.84375 25.28125 C 24.16075 25.30725 31.948 29.76125 33.25 30.65625 C 30.646 30.55725 27.63675 28.86025 25.09375 29.65625 C 25.73575 31.66425 30.89475 33.455 32.84375 34.5 C 30.36475 33.557 27.69 33.31725 25.125 32.78125 C 25.438 33.80325 26.99 34.4155 28 34.9375 C 28.136077 35.012492 28.270915 35.081833 28.40625 35.15625 C 25.76245 34.011322 23.100123 33.186985 20.96875 33.46875 C 16.34475 34.05175 24.60925 37.521 26.03125 38.25 C 23.44025 38.473 20.20325 37.154 17.78125 38.25 C 18.65425 40.174 24.01875 41.30075 26.09375 42.09375 C 23.50575 41.47575 20.83475 41.57275 18.21875 41.34375 C 18.61675 42.31675 20.27075 42.75125 21.34375 43.15625 C 24.87575 44.55825 28.254 45.84575 31.625 47.71875 C 34.602877 49.35303 37.110081 50.703857 39.65625 51.59375 C 38.896252 52.834466 38.043507 54.044411 37.0625 55.15625 C 27.5535 65.96325 14.55875 65.25425 4.34375 56.28125 C 15.67875 73.414249 33.890751 76.45025 50.09375 73.78125 C 57.42075 72.57525 64.34925 70.22575 70.03125 67.46875 C 77.74925 63.75875 83.3455 57.554 86.4375 50.25 C 88.14095 46.224992 89.044562 41.868412 89.125 37.40625 C 91.62373 37.555565 94.614514 36.780688 96.65625 36 C 98.53625 35.271 100.2365 34.371 101.6875 33 C 102.1835 32.537 102.47925 32.28175 103.03125 31.59375 C 98.06425 33.90575 93.62475 33.5265 89.21875 32.4375 C 95.20275 33.2335 99.41275 25.571 99.71875 21.5 C 98.78075 23.403 97.225 24.86375 95.375 25.96875 C 94.294 26.61475 88.33775 28.86575 87.71875 26.84375 C 87.546328 26.246451 87.392323 25.656598 87.1875 25.0625 C 83.804491 15.300324 73.946305 7.9675364 64.3125 9.65625 C 65.095827 9.2714823 65.879007 8.8981969 66.6875 8.5625 C 67.7205 8.1045 73.888 6.6672499 72.75 4.53125 C 71.783 2.6432501 64.408 6.574 63 7.125 C 64.85 6.28 67.8785 4.8369999 68.0625 2.625 z "
   transform="translate(0,-2.5061915e-6)"
   id="path2911"
   inkscape:export-filename="/home/cesium/mit/twittermap/viewer/twitter.png"
   inkscape:export-xdpi="299.97424"
   inkscape:export-ydpi="299.97424" />
</svg>