<?xml version="1.0" encoding="UTF-8" standalone="no"?>
<!-- Created with Inkscape (http://www.inkscape.org/) -->

<svg
   xmlns:dc="http://purl.org/dc/elements/1.1/"
   xmlns:cc="http://creativecommons.org/ns#"
   xmlns:rdf="http://www.w3.org/1999/02/22-rdf-syntax-ns#"
   xmlns:svg="http://www.w3.org/2000/svg"
   xmlns="http://www.w3.org/2000/svg"
   xmlns:sodipodi="http://sodipodi.sourceforge.net/DTD/sodipodi-0.dtd"
   xmlns:inkscape="http://www.inkscape.org/namespaces/inkscape"
   id="svg3961"
   version="1.1"
   inkscape:version="0.47 r22583"
   width="485"
   height="405"
   sodipodi:docname="elephant.svg">
  <metadata
     id="metadata3967">
    <rdf:RDF>
      <cc:Work
         rdf:about="">
        <dc:format>image/svg+xml</dc:format>
        <dc:type
           rdf:resource="http://purl.org/dc/dcmitype/StillImage" />
        <dc:title></dc:title>
      </cc:Work>
    </rdf:RDF>
  </metadata>
  <defs
     id="defs3965">
    <inkscape:perspective
       sodipodi:type="inkscape:persp3d"
       inkscape:vp_x="0 : 0.5 : 1"
       inkscape:vp_y="0 : 1000 : 0"
       inkscape:vp_z="1 : 0.5 : 1"
       inkscape:persp3d-origin="0.5 : 0.33333333 : 1"
       id="perspective3969" />
  </defs>
  <sodipodi:namedview
     pagecolor="#ffffff"
     bordercolor="#666666"
     borderopacity="1"
     objecttolerance="10"
     gridtolerance="10"
     guidetolerance="10"
     inkscape:pageopacity="0"
     inkscape:pageshadow="2"
     inkscape:window-width="1436"
     inkscape:window-height="839"
     id="namedview3963"
     showgrid="false"
     inkscape:zoom="3.3242748"
     inkscape:cx="412.4948"
     inkscape:cy="71.101617"
     inkscape:window-x="0"
     inkscape:window-y="36"
     inkscape:window-maximized="1"
     inkscape:current-layer="svg3961" />
  <path
     style="fill:#003298;fill-opacity:1"
     d="M 39.651714,157.25 C 38.736385,147.55822 38.86831,134.6129 40.05046,118.12251 41.603868,96.453246 43.755866,87.944215 50.324197,77.5 c 4.076684,-6.482282 3.73567,-6.031079 9.825247,-13 12.726506,-14.564234 31.10382,-27.550601 47.959636,-33.89078 7.29284,-2.74314 27.42381,-7.659195 41.39092,-10.107809 39.08886,-6.852779 113.32047,-6.624172 156,0.480426 34.75855,5.78604 55.42616,12.194628 74.48563,23.096413 7.04226,4.028087 17.89763,13.043721 22.71055,18.86164 13.98221,16.901868 20.00571,39.8935 21.04016,80.31011 l 0.53109,20.75 -191.98911,0 -191.98911,0 -0.637496,-6.75 z M 346.9362,132.5 c 1.75505,-6.05 3.89852,-12.9125 4.76326,-15.25 l 1.57226,-4.25 16.86414,0 C 379.71357,113 387,112.60317 387,112.08156 c 0,-0.50514 -1.49041,-1.83957 -3.31203,-2.96539 -1.82162,-1.12582 -7.33412,-5.02028 -12.25,-8.65435 -4.91588,-3.634068 -9.5398,-6.952041 -10.27536,-7.37327 -1.33257,-0.763107 0.98204,-9.81953 7.00826,-27.421319 1.09831,-3.208023 1.77772,-6.051979 1.50979,-6.319902 -0.26792,-0.267924 -4.69318,2.667588 -9.8339,6.523359 C 343.16554,78.38236 342.3121,79 341.7051,79 c -0.32955,0 -3.4373,-2.1375 -6.90611,-4.75 -9.91118,-7.464503 -20.73997,-14.642354 -21.27814,-14.104186 -0.26996,0.269965 0.57917,3.385097 1.88696,6.922516 1.30779,3.537418 3.72404,10.624807 5.36945,15.749752 l 2.99164,9.318082 -4.78605,3.681918 c -2.63233,2.025055 -8.87691,6.694978 -13.87683,10.377608 -4.99993,3.68263 -8.66626,6.95806 -8.1474,7.27873 0.51885,0.32067 8.20505,0.49517 17.08044,0.38778 12.97956,-0.15705 16.31767,0.0819 17.06011,1.22127 0.50767,0.77909 2.78346,7.26653 5.0573,14.41653 2.27385,7.15 4.5732,13.85946 5.10966,14.9099 1.30551,2.5563 1.73568,1.65274 5.67007,-11.9099 z M 127.04627,127.95099 132.12491,112 l 16.93754,0 c 9.31565,0 16.92946,-0.3375 16.91958,-0.75 -0.01,-0.4125 -2.14738,-2.19719 -4.75,-3.96597 -6.24446,-4.24385 -21.17834,-14.897006 -21.91331,-15.631976 -0.50419,-0.504195 5.92671,-22.157441 8.89028,-29.934119 0.58311,-1.530135 0.81759,-3.024683 0.52105,-3.321217 -0.29653,-0.296534 -4.7446,2.628705 -9.8846,6.500531 -17.95693,13.526487 -17.95756,13.526896 -19.36269,12.53986 C 118.74903,76.921699 112.9252,72.7676 106.5409,68.205777 93.40131,58.817039 91.265722,57.664341 92.406043,60.576391 94.800311,66.690661 102,88.981926 102,90.280653 102,92.084266 99.835024,93.938149 86.149539,103.85351 80.567293,107.89794 76,111.61044 76,112.10351 76,112.59669 83.579627,113 92.84831,113 l 16.84831,0 1.5232,3.87768 c 0.83775,2.13272 3.26851,9.28736 5.40169,15.8992 2.13317,6.61184 4.2087,11.81983 4.6123,11.57331 0.4036,-0.24652 3.0192,-7.62616 5.81246,-16.3992 z M 235.5174,131.5 c 2.03929,-6.6 4.28129,-13.575 4.98224,-15.5 l 1.27444,-3.5 17.36296,-0.5 17.36296,-0.5 -5,-3.43875 c -2.75,-1.89131 -6.575,-4.64632 -8.5,-6.12225 -1.925,-1.47592 -6.04765,-4.525745 -9.16145,-6.777377 l -5.66145,-4.093876 4.8874,-14.783874 c 2.68806,-8.13113 4.89821,-15.605599 4.91144,-16.609931 0.0222,-1.686581 -0.18599,-1.661498 -2.72594,0.328381 -5.83445,4.570897 -21.83463,16.231426 -23.50398,17.129113 -1.82307,0.980344 -4.25163,-0.49746 -21.45883,-13.057893 -3.96704,-2.895754 -7.61823,-5.109427 -8.11375,-4.919275 -0.49553,0.190153 0.62759,4.395732 2.49582,9.345732 1.86823,4.95 4.05837,11.462617 4.86699,14.472483 0.80861,3.009865 1.7091,6.225194 2.00109,7.145175 0.39637,1.248843 -2.89855,4.168673 -13.00322,11.522942 C 191.09035,107.05823 185,111.83041 185,112.24542 185,112.66044 192.78198,113 202.2933,113 l 17.2933,0 4.78766,14.75 c 2.63322,8.1125 4.99099,15.38775 5.23949,16.16722 0.81651,2.56117 2.12774,-0.19674 5.90365,-12.41722 z"
     id="path3973"
     sodipodi:nodetypes="csssssssscccccccccssssssssssscccssssssccccsssssssssssscccsscccccccscccsssssssssscccsc" />
  <path
     id="path3975"
     d="M 83.745436,390.23971 38.990873,389.9794 39.245436,284.2397 39.5,178.5 l 191.79308,0 191.79309,0 -0.0335,83 c -0.0188,46.73199 0.377,85.80803 0.90587,89.42623 1.2285,8.40451 4.08368,11.63542 9.13363,10.33558 2.29185,-0.58992 3.88273,-1.84067 4.85813,-3.81948 1.63886,-3.32478 1.94914,-12.14774 0.7277,-20.69233 L 437.85605,331 453.928,330.82143 c 8.83958,-0.0982 17.08446,-0.21072 18.32196,-0.25 2.12668,-0.0675 2.24213,0.28942 2.10633,6.51249 -2.16893,21.03552 -8.55258,39.21458 -26.60857,50.70849 -4.82083,2.48733 -6.35776,2.73393 -18.89299,3.03135 -12.46207,0.29568 -14.02032,0.13242 -17.97056,-1.88285 -8.54077,-4.35717 -14.7288,-12.66671 -21.17965,-28.44091 -4.74387,-11.60013 -7.45423,-31.8459 -8.50094,-63.5 l -0.71095,-21.5 c -3.37966,-4.78964 -6.8552,-11.282 -13.41926,-7.7056 L 364.5,269.71556 364.24225,330.35778 363.98451,391 314.49225,391 265,391 l 0,-47.5 0,-47.5 -65.5,0 -65.5,0 0,47 c 0,36.89253 -0.26882,47.01645 -1.25,47.07651 -0.6875,0.0421 -1.925,0.15458 -2.75,0.25 -0.825,0.0954 -21.63955,0.0564 -46.254564,-0.0868 z"
     style="fill:#c0000f;fill-opacity:1"
     sodipodi:nodetypes="cccccccssscccsccssscccccccccccccssc" />
</svg>
